<svg width="43" height="50" viewBox="0 0 43 50" fill="none" xmlns="http://www.w3.org/2000/svg">
<path fill-rule="evenodd" clip-rule="evenodd" d="M27.2187 42.4701L33.312 38.582C33.9956 38.1458 34.4094 37.3909 34.4094 36.5799L34.4094 32.954L34.9372 32.954L34.9372 36.5799C34.9372 37.5711 34.4315 38.4938 33.5959 39.027L27.5027 42.915L27.2187 42.4701Z" fill="#D10045"/>
<path fill-rule="evenodd" clip-rule="evenodd" d="M8.63119 13.0982L15.5312 13.0982L15.5312 13.626L8.63119 13.626L8.63119 13.0982Z" fill="#D10045"/>
<path d="M21.3826 22.2931L12.7833 17.4067L12.8101 7.44527L21.3794 12.4437L21.3826 22.2931Z" fill="#A70037"/>
<path d="M29.8491 7.4616L21.3709 12.4424L12.8142 7.45145L21.2945 2.45215L29.8491 7.4616Z" fill="#D10045"/>
<path d="M29.9041 17.3722L21.3762 22.2958L21.3772 12.4281L29.8416 7.45529L29.9041 17.3722Z" fill="#7A0027"/>
<path d="M30.0154 37.1681L21.4161 32.2817L21.443 22.3203L30.0122 27.3187L30.0154 37.1681Z" fill="url(#paint0_linear_971_2804)"/>
<path d="M38.4819 22.3366L30.0037 27.3174L21.447 22.3264L29.9273 17.3271L38.4819 22.3366Z" fill="url(#paint1_linear_971_2804)"/>
<path d="M38.5369 32.2472L30.009 37.1708L30.01 27.3031L38.4744 22.3303L38.5369 32.2472Z" fill="url(#paint2_linear_971_2804)"/>
<path d="M30.0093 37.1687L21.41 32.2823L21.3726 22.2999L30.0061 27.3193L30.0093 37.1687Z" fill="#A70037"/>
<path d="M38.475 22.337L29.9968 27.3177L21.3712 22.2996L29.9204 17.3275L38.475 22.337Z" fill="#D10045"/>
<path d="M38.5369 32.2462L30.009 37.1698L30.01 27.3021L38.4744 22.3293L38.5369 32.2462Z" fill="#7A0027"/>
<path d="M12.949 47.0431L4.34968 42.1567L4.37655 32.1953L12.9458 37.1937L12.949 47.0431Z" fill="#A70037"/>
<path d="M21.4155 32.2116L12.9373 37.1924L4.38064 32.2014L12.8609 27.2021L21.4155 32.2116Z" fill="#D10045"/>
<path d="M21.4705 42.1212L12.9426 47.0448L12.9436 37.1771L21.408 32.2043L21.4705 42.1212Z" fill="#7A0027"/>
<path fill-rule="evenodd" clip-rule="evenodd" d="M13.1567 23.8529L13.1567 30.7529L12.6289 30.7529L12.6289 23.8529L13.1567 23.8529Z" fill="#D10045"/>
<path fill-rule="evenodd" clip-rule="evenodd" d="M33.3403 15.6297L33.3403 20.7021L32.8125 20.7021L32.8125 15.6297L33.3403 15.6297Z" fill="#D10045"/>
<path fill-rule="evenodd" clip-rule="evenodd" d="M7.45739 14.3723C8.09592 14.3723 8.61356 13.8547 8.61356 13.2162C8.61356 12.5776 8.09592 12.06 7.45739 12.06C6.81886 12.06 6.30122 12.5776 6.30122 13.2162C6.30122 13.8547 6.81886 14.3723 7.45739 14.3723ZM7.45739 14.9001C8.38741 14.9001 9.14134 14.1462 9.14134 13.2162C9.14134 12.2862 8.38741 11.5322 7.45739 11.5322C6.52737 11.5322 5.77344 12.2862 5.77344 13.2162C5.77344 14.1462 6.52737 14.9001 7.45739 14.9001Z" fill="#D10045"/>
<path fill-rule="evenodd" clip-rule="evenodd" d="M33.0043 15.6126C33.412 15.6126 33.7425 15.2821 33.7425 14.8744C33.7425 14.4667 33.412 14.1362 33.0043 14.1362C32.5966 14.1362 32.2661 14.4667 32.2661 14.8744C32.2661 15.2821 32.5966 15.6126 33.0043 15.6126ZM33.0043 16.1404C33.7034 16.1404 34.2702 15.5736 34.2702 14.8744C34.2702 14.1752 33.7034 13.6084 33.0043 13.6084C32.3051 13.6084 31.7383 14.1752 31.7383 14.8744C31.7383 15.5736 32.3051 16.1404 33.0043 16.1404Z" fill="#D10045"/>
<path fill-rule="evenodd" clip-rule="evenodd" d="M26.4808 43.8802C26.8885 43.8802 27.219 43.5497 27.219 43.142C27.219 42.7343 26.8885 42.4038 26.4808 42.4038C26.0731 42.4038 25.7426 42.7343 25.7426 43.142C25.7426 43.5497 26.0731 43.8802 26.4808 43.8802ZM26.4808 44.4079C27.18 44.4079 27.7468 43.8411 27.7468 43.142C27.7468 42.4428 27.18 41.876 26.4808 41.876C25.7816 41.876 25.2148 42.4428 25.2148 43.142C25.2148 43.8411 25.7816 44.4079 26.4808 44.4079Z" fill="#D10045"/>
<path fill-rule="evenodd" clip-rule="evenodd" d="M12.7648 23.7978C13.2452 23.7978 13.6347 23.4083 13.6347 22.9279C13.6347 22.4475 13.2452 22.0581 12.7648 22.0581C12.2844 22.0581 11.895 22.4475 11.895 22.9279C11.895 23.4083 12.2844 23.7978 12.7648 23.7978ZM12.7648 24.3256C13.5367 24.3256 14.1625 23.6998 14.1625 22.9279C14.1625 22.156 13.5367 21.5303 12.7648 21.5303C11.9929 21.5303 11.3672 22.156 11.3672 22.9279C11.3672 23.6998 11.9929 24.3256 12.7648 24.3256Z" fill="#D10045"/>
<defs>
<linearGradient id="paint0_linear_971_2804" x1="21.4074" y1="22.3408" x2="29.9799" y2="37.1886" gradientUnits="userSpaceOnUse">
<stop stop-color="#1ABE99"/>
<stop offset="1" stop-color="#01E3D1"/>
</linearGradient>
<linearGradient id="paint1_linear_971_2804" x1="27.7882" y1="18.5621" x2="32.1332" y2="26.0879" gradientUnits="userSpaceOnUse">
<stop stop-color="#1ABE99"/>
<stop offset="1" stop-color="#01E3D1"/>
</linearGradient>
<linearGradient id="paint2_linear_971_2804" x1="32.0868" y1="26.0182" x2="36.3966" y2="33.4829" gradientUnits="userSpaceOnUse">
<stop stop-color="#1ABE99"/>
<stop offset="1" stop-color="#01E3D1"/>
</linearGradient>
</defs>
</svg>
