<svg width="1200" height="824" viewBox="0 0 1200 824" fill="none" xmlns="http://www.w3.org/2000/svg">
<path d="M556.224 386.2H566.14L542.164 438H530.324L506.348 386.2H516.19L536.244 430.822L556.224 386.2ZM584.57 397.448C595.448 397.448 604.698 401.074 604.698 412.396V438H595.596V432.894C593.672 435.114 588.936 439.11 579.686 439.11C570.214 439.11 563.924 435.188 563.924 427.64C563.924 419.5 568.364 413.062 595.596 414.838V412.396C595.596 406.92 592.784 404.182 584.57 404.182C577.54 404.182 574.654 406.476 573.988 409.806H565.478C566.662 401.518 574.358 397.448 584.57 397.448ZM595.596 426.9V420.314C579.168 419.5 573.248 420.906 573.248 427.048C573.248 431.044 576.356 433.042 581.61 433.042C588.566 433.042 593.154 430.452 595.596 426.9ZM615.085 383.388H624.187V438H615.085V383.388ZM634.524 438V398.558H643.626V438H634.524ZM639.038 393.082C636.226 393.082 634.228 391.454 634.228 388.642C634.228 385.83 636.226 384.202 639.038 384.202C641.924 384.202 643.922 385.83 643.922 388.642C643.922 391.454 641.924 393.082 639.038 393.082ZM685.932 386.2H695.034V438H685.932V432.82C682.824 436.594 678.088 439.11 671.502 439.11C659.958 439.11 651.004 431.636 651.004 418.316C651.004 404.922 659.958 397.448 671.502 397.448C678.088 397.448 682.824 399.964 685.932 403.738V386.2ZM673.278 432.376C682.676 432.376 687.338 426.456 687.338 418.316C687.338 410.102 682.824 404.182 673.278 404.182C663.658 404.182 659.44 409.954 659.44 418.316C659.44 426.604 663.806 432.376 673.278 432.376ZM705.417 438V398.558H714.519V438H705.417ZM709.931 393.082C707.119 393.082 705.121 391.454 705.121 388.642C705.121 385.83 707.119 384.202 709.931 384.202C712.817 384.202 714.815 385.83 714.815 388.642C714.815 391.454 712.817 393.082 709.931 393.082ZM755.862 398.558H764.964V438H755.862V431.932C754.012 434.522 748.98 439.11 740.766 439.11C730.48 439.11 724.856 433.264 724.856 424.088V398.558H733.958V421.35C733.958 428.01 737.584 431.71 744.762 431.71C751.94 431.71 755.862 427.566 755.862 421.35V398.558ZM825.618 397.448C835.904 397.448 840.862 403.294 840.862 412.47V438H831.686V415.208C831.686 408.548 829.244 404.848 822.288 404.848C815.406 404.848 812.594 409.288 812.594 415.208V438H803.492V415.208C803.492 408.548 800.976 404.848 794.094 404.848C787.212 404.848 784.4 409.288 784.4 415.208V438H775.298V398.558H784.4V404.33C785.88 401.74 789.654 397.448 797.35 397.448C804.158 397.448 808.598 399.964 810.818 404.33C812.816 401.666 817.7 397.448 825.618 397.448Z" fill="white"/>
<path d="M425.554 403.662L396.369 387.078L396.46 353.269L425.544 370.234L425.554 403.662Z" fill="#E9E9E9"/>
<path d="M454.287 353.325L425.513 370.229L396.472 353.29L425.253 336.323L454.287 353.325Z" fill="#F2F2F2"/>
<path d="M454.487 386.956L425.543 403.667L425.547 370.176L454.275 353.299L454.487 386.956Z" fill="#D7D7D7"/>
<path d="M454.861 454.144L425.675 437.56L425.766 403.752L454.85 420.716L454.861 454.144Z" fill="url(#paint0_linear_2067_162)"/>
<path d="M483.593 403.807L454.819 420.711L425.778 403.773L454.559 386.805L483.593 403.807Z" fill="url(#paint1_linear_2067_162)"/>
<path d="M483.793 437.439L454.85 454.149L454.853 420.659L483.581 403.782L483.793 437.439Z" fill="url(#paint2_linear_2067_162)"/>
<path d="M454.858 454.143L425.673 437.559L425.546 403.68L454.848 420.715L454.858 454.143Z" fill="#E9E9E9"/>
<path d="M483.592 403.807L454.818 420.711L425.543 403.68L454.559 386.805L483.592 403.807Z" fill="#F2F2F2"/>
<path d="M483.793 437.439L454.85 454.149L454.853 420.659L483.581 403.782L483.793 437.439Z" fill="#D7D7D7"/>
<path d="M396.942 487.663L367.756 471.078L367.848 437.27L396.931 454.235L396.942 487.663Z" fill="#E9E9E9"/>
<path d="M425.674 437.326L396.9 454.23L367.859 437.291L396.64 420.324L425.674 437.326Z" fill="#F2F2F2"/>
<path d="M425.874 470.957L396.931 487.668L396.934 454.177L425.662 437.3L425.874 470.957Z" fill="#D7D7D7"/>
<line x1="396.766" y1="432.367" x2="396.766" y2="408.949" stroke="#E9E9E9" stroke-width="1.79126"/>
<line x1="465.271" y1="398.261" x2="465.271" y2="381.045" stroke="#E9E9E9" stroke-width="1.79126"/>
<path d="M470.684 439.838L470.684 452.144C470.684 455.202 469.123 458.049 466.545 459.694L445.865 472.89" stroke="#D7D7D7" stroke-width="1.79126"/>
<line x1="405.723" y1="373.348" x2="382.304" y2="373.348" stroke="#E9E9E9" stroke-width="1.79126"/>
<circle cx="378.317" cy="372.853" r="4.81958" stroke="#E9E9E9" stroke-width="1.79126"/>
<circle cx="465.027" cy="378.482" r="3.40102" stroke="#E9E9E9" stroke-width="1.79126"/>
<circle cx="442.888" cy="474.42" r="3.40102" stroke="#D7D7D7" stroke-width="1.79126"/>
<circle cx="396.322" cy="405.812" r="3.84785" stroke="#E9E9E9" stroke-width="1.79126"/>
<defs>
<linearGradient id="paint0_linear_2067_162" x1="425.646" y1="403.821" x2="454.74" y2="454.214" gradientUnits="userSpaceOnUse">
<stop stop-color="#1ABE99"/>
<stop offset="1" stop-color="#01E3D1"/>
</linearGradient>
<linearGradient id="paint1_linear_2067_162" x1="447.3" y1="390.997" x2="462.046" y2="416.539" gradientUnits="userSpaceOnUse">
<stop stop-color="#1ABE99"/>
<stop offset="1" stop-color="#01E3D1"/>
</linearGradient>
<linearGradient id="paint2_linear_2067_162" x1="461.902" y1="416.298" x2="476.529" y2="441.633" gradientUnits="userSpaceOnUse">
<stop stop-color="#1ABE99"/>
<stop offset="1" stop-color="#01E3D1"/>
</linearGradient>
</defs>
</svg>