<svg width="26" height="26" viewBox="0 0 26 26" fill="none" xmlns="http://www.w3.org/2000/svg">
<path d="M13.2192 11.6987L8.70704 9.13475L8.72114 3.90788L13.2175 6.53063L13.2192 11.6987Z" fill="#E9E9E9"/>
<path d="M17.663 3.91509L13.2144 6.52855L8.72463 3.90977L13.1743 1.28658L17.663 3.91509Z" fill="#F2F2F2"/>
<path d="M17.6931 9.1146L13.2184 11.6981L13.219 6.52036L17.6603 3.9111L17.6931 9.1146Z" fill="#D7D7D7"/>
<path d="M17.7465 19.5044L13.2344 16.9404L13.2485 11.7135L17.7449 14.3363L17.7465 19.5044Z" fill="url(#paint0_linear_2074_101)"/>
<path d="M22.1903 11.7208L17.7417 14.3342L13.252 11.7154L17.7016 9.09224L22.1903 11.7208Z" fill="url(#paint1_linear_2074_101)"/>
<path d="M22.2204 16.9203L17.7457 19.5037L17.7463 14.326L22.1877 11.7168L22.2204 16.9203Z" fill="url(#paint2_linear_2074_101)"/>
<path d="M17.7499 19.5048L13.2378 16.9408L13.2182 11.7029L17.7483 14.3367L17.7499 19.5048Z" fill="#E9E9E9"/>
<path d="M22.1918 11.7223L17.7432 14.3358L13.2172 11.7027L17.7031 9.09381L22.1918 11.7223Z" fill="#F2F2F2"/>
<path d="M22.2224 16.9212L17.7477 19.5047L17.7483 14.327L22.1896 11.7177L22.2224 16.9212Z" fill="#D7D7D7"/>
<path d="M8.7934 24.687L4.28126 22.123L4.29536 16.8962L8.79175 19.5189L8.7934 24.687Z" fill="#E9E9E9"/>
<path d="M13.2372 16.9034L8.78861 19.5168L4.29885 16.898L8.74852 14.2749L13.2372 16.9034Z" fill="#F2F2F2"/>
<path d="M13.2673 22.1039L8.79262 24.6873L8.79318 19.5096L13.2345 16.9004L13.2673 22.1039Z" fill="#D7D7D7"/>
<line x1="8.76778" y1="16.1367" x2="8.76778" y2="12.5162" stroke="#E9E9E9" stroke-width="0.276934"/>
<line x1="19.3606" y1="10.8633" x2="19.3606" y2="8.20172" stroke="#E9E9E9" stroke-width="0.276934"/>
<path d="M20.1954 17.2914L20.1954 19.194C20.1954 19.6668 19.9542 20.1069 19.5556 20.3612L16.3584 22.4014" stroke="#D7D7D7" stroke-width="0.276934"/>
<line x1="10.1533" y1="7.01249" x2="6.53278" y2="7.01249" stroke="#E9E9E9" stroke-width="0.276934"/>
<circle cx="5.91777" cy="6.93632" r="0.745121" stroke="#E9E9E9" stroke-width="0.276934"/>
<circle cx="19.3215" cy="7.80392" r="0.525809" stroke="#E9E9E9" stroke-width="0.276934"/>
<circle cx="15.8987" cy="22.636" r="0.525809" stroke="#D7D7D7" stroke-width="0.276934"/>
<circle cx="8.70015" cy="12.0302" r="0.59489" stroke="#E9E9E9" stroke-width="0.276934"/>
<defs>
<linearGradient id="paint0_linear_2074_101" x1="13.2299" y1="11.7243" x2="17.7279" y2="19.5151" gradientUnits="userSpaceOnUse">
<stop stop-color="#1ABE99"/>
<stop offset="1" stop-color="#01E3D1"/>
</linearGradient>
<linearGradient id="paint1_linear_2074_101" x1="16.5792" y1="9.74026" x2="18.8591" y2="13.6891" gradientUnits="userSpaceOnUse">
<stop stop-color="#1ABE99"/>
<stop offset="1" stop-color="#01E3D1"/>
</linearGradient>
<linearGradient id="paint2_linear_2074_101" x1="18.836" y1="13.6518" x2="21.0974" y2="17.5687" gradientUnits="userSpaceOnUse">
<stop stop-color="#1ABE99"/>
<stop offset="1" stop-color="#01E3D1"/>
</linearGradient>
</defs>
</svg>
